<svg xmlns="http://www.w3.org/2000/svg" version="1.1" xmlns:xlink="http://www.w3.org/1999/xlink" xmlns:svgjs="http://svgjs.dev/svgjs" width="100%" height="100%" viewBox="0 0 1000 600"><rect width="1000" height="600" x="0" y="0" fill="#ee4e34"/><g><rect width="333.3333333333333" height="333.3333333333333" y="238.87309858411174" fill="#fcedda" transform="matrix(0.5769652809451863,0,0,0.5769652809451865,0,66.0176679797149)" x="216.6508636474609"/><path d="M359.0850598434398 480.5397652423734L340.0928936631746 480.5397652423734L340.0928936631746 330.53976378854L426.54218520612073 330.53976378854L426.54218520612073 346.5465392983287L359.0850598434398 346.5465392983287L359.0850598434398 397.2981806964286L416.2521152355423 397.2981806964286L416.2521152355423 413.3049562062173L359.0850598434398 413.3049562062173L359.0850598434398 480.5397652423734Z " fill="#ee4e34" transform="matrix(0.5769652809451863,0,0,0.5769652809451865,0,66.0176679797149)"/><path d="M650.9645955625675 478.0018883821174L633.31753737474 478.0018883821174L633.31753737474 338.6255408551789L713.644113273179 338.6255408551789L713.644113273179 353.4986467526121L650.9645955625675 353.4986467526121L650.9645955625675 400.655835689315L704.0828309105433 400.655835689315L704.0828309105433 415.52894158674815L650.9645955625675 415.52894158674815L650.9645955625675 478.0018883821174ZM760.3881603793976 480.53975962652066L760.3881603793976 480.53975962652066Q747.4037028498925 480.53975962652066 738.8162548019696 472.80810537031533Q730.199296623298 465.0469409833611 730.199296623298 451.2361997928874L730.199296623298 451.2361997928874Q730.199296623298 434.2383644815352 745.3970139589688 425.2082644723793Q760.5947312946397 416.1781644632234 793.5280372103847 412.5484183811118L793.5280372103847 412.5484183811118Q793.5280372103847 405.96765922411254 791.7279192347033 400.03612294358857Q789.898291128273 394.07507653231573 785.3537309929462 390.35680005795746Q780.7796607268705 386.6385235835992 772.2807430711945 386.6385235835992L772.2807430711945 386.6385235835992Q763.3391734542851 386.6385235835992 755.4894786750843 390.0321886197198Q747.6397838958834 393.4258536558405 741.4721665693684 397.67531248367857L741.4721665693684 397.67531248367857L734.6553263663783 385.5761588766396Q741.8853083998528 380.91355821831735 752.4204250772012 376.54605886748374Q762.9260316238009 372.1785595166502 775.2612662768307 372.1785595166502L775.2612662768307 372.1785595166502Q794.1477499561112 372.1785595166502 802.6466676117872 383.77604090095826Q811.1455852674634 395.3440121545174 811.1455852674634 414.6731477950308L811.1455852674634 414.6731477950308L811.1455852674634 478.0018883821174L796.7151313312633 478.0018883821174L795.2101146630706 465.66665372908744L794.5904019173441 465.66665372908744Q787.3604198838697 471.62770014036033 778.743461705198 476.08372988344047Q770.1560136572754 480.53975962652066 760.3881603793976 480.53975962652066ZM765.4639028682042 466.52244752080486L765.4639028682042 466.52244752080486Q772.9004558169207 466.52244752080486 779.510725104669 462.9222115694421Q786.0914842616681 459.2924654873304 793.5280372103847 452.7117063303312L793.5280372103847 452.7117063303312L793.5280372103847 424.02785924242426Q767.8247133281142 427.2149533633028 757.4961675660078 433.5891416050599Q747.1971319346502 439.96332984681703 747.1971319346502 449.9672641706858L747.1971319346502 449.9672641706858Q747.1971319346502 458.672752741604 752.5089554694479 462.59760013120444Q757.8207790042455 466.52244752080486 765.4639028682042 466.52244752080486ZM886.3669085463467 478.0018883821174L865.9754081988739 478.0018883821174L828.7926434552909 374.7459408918024L846.8528434736025 374.7459408918024L866.388550029358 433.3825706898178Q868.749360489268 441.02569455377653 871.1691912106759 448.6688184177352Q873.6185320628325 456.34145241244283 875.9498323919937 463.77800536115944L875.9498323919937 463.77800536115944L876.8056261837111 463.77800536115944Q879.1369265128723 456.34145241244283 881.5862673650289 448.6688184177352Q884.0356082171855 441.02569455377653 886.1603376311047 433.3825706898178L886.1603376311047 433.3825706898178L905.6960441868601 374.7459408918024L922.9299605442035 374.7459408918024L886.3669085463467 478.0018883821174ZM960.3192962030286 478.0018883821174L942.8788089304431 478.0018883821174L942.8788089304431 374.7459408918024L960.3192962030286 374.7459408918024L960.3192962030286 478.0018883821174ZM951.8203785473523 353.4986467526121L951.8203785473523 353.4986467526121Q946.715125927797 353.4986467526121 943.409991283923 350.4000830239802Q940.1343667707978 347.3310294260971 940.1343667707978 342.0192058912995L940.1343667707978 342.0192058912995Q940.1343667707978 336.9139532717441 943.409991283923 333.72685915086555Q946.715125927797 330.539765029987 951.8203785473523 330.539765029987L951.8203785473523 330.539765029987Q956.9256311669079 330.539765029987 960.2012556800331 333.72685915086555Q963.5063903239071 336.9139532717441 963.5063903239071 342.0192058912995L963.5063903239071 342.0192058912995Q963.5063903239071 347.3310294260971 960.2012556800331 350.4000830239802Q956.9256311669079 353.4986467526121 951.8203785473523 353.4986467526121ZM1035.9537613123962 480.53975962652066L1035.9537613123962 480.53975962652066Q1022.3495910371647 480.53975962652066 1011.3128021370852 474.1655713847636Q1000.2465031062569 467.7913831430065 993.8723148644998 455.6922295359676Q987.4981266227427 443.59307592892867 987.4981266227427 426.59524061757645L987.4981266227427 426.59524061757645Q987.4981266227427 409.1547533449911 994.4034972179796 397.05559973795215Q1001.3088678132166 384.92693600016435 1012.6997782822824 378.5527477584073Q1024.0611786205995 372.1785595166502 1037.222696934598 372.1785595166502L1037.222696934598 372.1785595166502Q1047.4332021737087 372.1785595166502 1054.7517145994298 375.8083055987619Q1062.0997371558997 379.4085415501247 1067.4115606906976 384.307223254438L1067.4115606906976 384.307223254438L1058.4699910737882 395.7866641157505Q1054.0139613307078 391.7437762031546 1049.0267492341482 389.17639482800246Q1044.039537137588 386.6385235835992 1037.871919811073 386.6385235835992L1037.871919811073 386.6385235835992Q1028.5172083636794 386.6385235835992 1021.1986959379584 391.6257356801591Q1013.8506733814885 396.612947776719 1009.7192550766459 405.6430477858749Q1005.5583266410546 414.6731477950308 1005.5583266410546 426.59524061757645L1005.5583266410546 426.59524061757645Q1005.5583266410546 444.21278867465503 1014.3818557349683 455.16104718248783Q1023.2053848288821 466.10930569032064 1037.42926784984 466.10930569032064L1037.42926784984 466.10930569032064Q1044.6592498833143 466.10930569032064 1050.8268672098293 463.0107419616887Q1056.9944845363443 459.9416883638056 1061.6570851946667 455.6922295359676L1061.6570851946667 455.6922295359676L1069.3002090586256 467.3782413125223Q1062.3063080711418 473.5458586390372 1053.8073904154658 477.0575641981534Q1045.3084727597898 480.53975962652066 1035.9537613123962 480.53975962652066ZM1132.215807815228 480.53975962652066L1132.215807815228 480.53975962652066Q1119.6740022469558 480.53975962652066 1108.7257437391231 474.1655713847636Q1097.77748523129 467.7913831430065 1091.0786855512952 455.6922295359676Q1084.4093960020496 443.59307592892867 1084.4093960020496 426.59524061757645L1084.4093960020496 426.59524061757645Q1084.4093960020496 409.1547533449911 1091.0786855512952 397.05559973795215Q1097.77748523129 384.92693600016435 1108.7257437391231 378.5527477584073Q1119.6740022469558 372.1785595166502 1132.215807815228 372.1785595166502L1132.215807815228 372.1785595166502Q1144.964184298742 372.1785595166502 1155.794402283579 378.5527477584073Q1166.6246202684165 384.92693600016435 1173.3234199484114 397.05559973795215Q1180.0222196284058 409.1547533449911 1180.0222196284058 426.59524061757645L1180.0222196284058 426.59524061757645Q1180.0222196284058 443.59307592892867 1173.3234199484114 455.6922295359676Q1166.6246202684165 467.7913831430065 1155.794402283579 474.1655713847636Q1144.964184298742 480.53975962652066 1132.215807815228 480.53975962652066ZM1132.215807815228 466.10930569032064L1132.215807815228 466.10930569032064Q1145.5838970444684 466.10930569032064 1153.7582032619066 455.16104718248783Q1161.962019610094 444.21278867465503 1161.962019610094 426.59524061757645L1161.962019610094 426.59524061757645Q1161.962019610094 408.7416115145068 1153.7582032619066 397.67531248367857Q1145.5838970444684 386.6385235835992 1132.215807815228 386.6385235835992L1132.215807815228 386.6385235835992Q1119.0247793704802 386.6385235835992 1110.7324326300463 397.67531248367857Q1102.4695960203612 408.7416115145068 1102.4695960203612 426.59524061757645L1102.4695960203612 426.59524061757645Q1102.4695960203612 444.21278867465503 1110.7324326300463 455.16104718248783Q1119.0247793704802 466.10930569032064 1132.215807815228 466.10930569032064ZM1224.6415373207055 478.0018883821174L1207.2010500481201 478.0018883821174L1207.2010500481201 374.7459408918024L1221.661014115069 374.7459408918024L1223.136520652513 389.61904678923554L1223.785743528988 389.61904678923554Q1231.2222964777047 382.182493840519 1239.5146432181386 377.195281743959Q1247.7774798278238 372.1785595166502 1258.401126897419 372.1785595166502L1258.401126897419 372.1785595166502Q1274.7792494630448 372.1785595166502 1282.304332804008 382.5071052787566Q1289.8589262757205 392.8061409101141 1289.8589262757205 412.5484183811118L1289.8589262757205 412.5484183811118L1289.8589262757205 478.0018883821174L1272.4479491338839 478.0018883821174L1272.4479491338839 414.9092288410218Q1272.4479491338839 400.44926477407284 1267.7558383448127 393.8685056170736Q1263.0932376864903 387.2877464600744 1252.8827324473796 387.2877464600744L1252.8827324473796 387.2877464600744Q1245.0330376681786 387.2877464600744 1238.747379818668 391.30112424192146Q1232.4912320999065 395.3440121545174 1224.6415373207055 403.2232170644671L1224.6415373207055 403.2232170644671L1224.6415373207055 478.0018883821174ZM1332.560085469343 480.53975962652066L1332.560085469343 480.53975962652066Q1327.2482619345456 480.53975962652066 1323.5299854601872 476.8214831521624Q1319.8117089858288 473.1032066778041 1319.8117089858288 467.3782413125223L1319.8117089858288 467.3782413125223Q1319.8117089858288 461.2106239860073 1323.5299854601872 457.492347511649Q1327.2482619345456 453.7740710372907 1332.560085469343 453.7740710372907L1332.560085469343 453.7740710372907Q1337.6653380888984 453.7740710372907 1341.3836145632567 457.492347511649Q1345.1018910376151 461.2106239860073 1345.1018910376151 467.3782413125223L1345.1018910376151 467.3782413125223Q1345.1018910376151 473.1032066778041 1341.3836145632567 476.8214831521624Q1337.6653380888984 480.53975962652066 1332.560085469343 480.53975962652066ZM1393.7640966425106 478.0018883821174L1376.3236093699252 478.0018883821174L1376.3236093699252 374.7459408918024L1393.7640966425106 374.7459408918024L1393.7640966425106 478.0018883821174ZM1385.2651789868346 353.4986467526121L1385.2651789868346 353.4986467526121Q1380.1599263672792 353.4986467526121 1376.854791723405 350.4000830239802Q1373.5791672102796 347.3310294260971 1373.5791672102796 342.0192058912995L1373.5791672102796 342.0192058912995Q1373.5791672102796 336.9139532717441 1376.854791723405 333.72685915086555Q1380.1599263672792 330.539765029987 1385.2651789868346 330.539765029987L1385.2651789868346 330.539765029987Q1390.37043160639 330.539765029987 1393.646056119515 333.72685915086555Q1396.9511907633891 336.9139532717441 1396.9511907633891 342.0192058912995L1396.9511907633891 342.0192058912995Q1396.9511907633891 347.3310294260971 1393.646056119515 350.4000830239802Q1390.37043160639 353.4986467526121 1385.2651789868346 353.4986467526121ZM1468.7493388754028 480.53975962652066L1468.7493388754028 480.53975962652066Q1456.2370434378795 480.53975962652066 1445.2887849300469 474.1655713847636Q1434.3405264222142 467.7913831430065 1427.6417267422194 455.6922295359676Q1420.942927062225 443.59307592892867 1420.942927062225 426.59524061757645L1420.942927062225 426.59524061757645Q1420.942927062225 409.1547533449911 1427.6417267422194 397.05559973795215Q1434.3405264222142 384.92693600016435 1445.2887849300469 378.5527477584073Q1456.2370434378795 372.1785595166502 1468.7493388754028 372.1785595166502L1468.7493388754028 372.1785595166502Q1481.497715358917 372.1785595166502 1492.3574434745033 378.5527477584073Q1503.1876614593407 384.92693600016435 1509.886461139335 397.05559973795215Q1516.5557506885812 409.1547533449911 1516.5557506885812 426.59524061757645L1516.5557506885812 426.59524061757645Q1516.5557506885812 443.59307592892867 1509.886461139335 455.6922295359676Q1503.1876614593407 467.7913831430065 1492.3574434745033 474.1655713847636Q1481.497715358917 480.53975962652066 1468.7493388754028 480.53975962652066ZM1468.7493388754028 466.10930569032064L1468.7493388754028 466.10930569032064Q1482.1469382353926 466.10930569032064 1490.3212444528308 455.16104718248783Q1498.4955506702695 444.21278867465503 1498.4955506702695 426.59524061757645L1498.4955506702695 426.59524061757645Q1498.4955506702695 408.7416115145068 1490.3212444528308 397.67531248367857Q1482.1469382353926 386.6385235835992 1468.7493388754028 386.6385235835992L1468.7493388754028 386.6385235835992Q1455.5878205614044 386.6385235835992 1447.2954738209705 397.67531248367857Q1439.0031270805366 408.7416115145068 1439.0031270805366 426.59524061757645L1439.0031270805366 426.59524061757645Q1439.0031270805366 444.21278867465503 1447.2954738209705 455.16104718248783Q1455.5878205614044 466.10930569032064 1468.7493388754028 466.10930569032064Z " fill="#fcedda" transform="matrix(0.5769652809451863,0,0,0.5769652809451865,0,66.0176679797149)"/></g></svg>